<?xml version="1.0" standalone="no"?>
<!DOCTYPE svg PUBLIC "-//W3C//DTD SVG 20010904//EN"
 "http://www.w3.org/TR/2001/REC-SVG-20010904/DTD/svg10.dtd">
<svg version="1.0" xmlns="http://www.w3.org/2000/svg"
 width="992.000000pt" height="992.000000pt" viewBox="0 0 992.000000 992.000000"
 preserveAspectRatio="xMidYMid meet">
<metadata>
Created by potrace 1.14, written by Peter Selinger 2001-2017
</metadata>
<g transform="translate(0.000000,992.000000) scale(0.100000,-0.100000)"
fill="#000000" stroke="none">
<path d="M350 9862 c0 -4 664 -1996 1475 -4427 812 -2431 1552 -4647 1644
-4925 l168 -505 1310 -3 1310 -2 35 112 c20 62 156 469 303 903 146 435 299
889 340 1010 40 121 193 576 340 1010 146 435 301 896 345 1025 71 211 424
1261 831 2470 83 245 185 551 229 680 68 204 455 1355 784 2330 58 173 106
318 106 322 0 4 -599 7 -1332 6 l-1331 -3 -48 -170 c-26 -93 -71 -255 -99
-360 -28 -104 -74 -271 -101 -370 -113 -413 -150 -549 -194 -710 -46 -166 -95
-345 -195 -710 -27 -99 -70 -256 -95 -350 -46 -166 -95 -345 -195 -710 -27
-99 -70 -256 -95 -350 -46 -166 -95 -345 -195 -710 -27 -99 -70 -256 -95 -350
-46 -166 -95 -345 -195 -710 -27 -99 -70 -256 -95 -350 -44 -161 -79 -289
-195 -710 -27 -99 -69 -253 -94 -342 -25 -90 -48 -179 -52 -198 -3 -19 -10
-37 -14 -40 -4 -2 -28 73 -54 168 -105 380 -127 460 -181 662 -31 116 -78 289
-105 385 -27 96 -72 261 -100 365 -28 105 -69 253 -90 330 -21 77 -64 235 -95
350 -67 250 -129 476 -195 715 -27 96 -71 259 -99 363 -28 103 -74 271 -102
375 -28 103 -68 250 -89 327 -21 77 -62 226 -90 330 -29 105 -76 278 -105 385
-29 107 -77 281 -105 385 -28 105 -69 253 -90 330 -21 77 -62 226 -90 330 -28
105 -73 269 -100 365 -26 96 -73 270 -105 385 -107 396 -147 540 -154 565 l-8
25 -1321 3 c-727 1 -1322 -1 -1322 -6z"/>
</g>
</svg>
