<svg width="497" height="237" viewBox="0 0 497 237" fill="none" xmlns="http://www.w3.org/2000/svg">
<path d="M17.5781 92H4.375V49.7344H17.5781V92ZM3.59375 38.8359C3.59375 36.9609 4.27083 35.4245 5.625 34.2266C6.97917 33.0286 8.73698 32.4297 10.8984 32.4297C13.0599 32.4297 14.8177 33.0286 16.1719 34.2266C17.526 35.4245 18.2031 36.9609 18.2031 38.8359C18.2031 40.7109 17.526 42.2474 16.1719 43.4453C14.8177 44.6432 13.0599 45.2422 10.8984 45.2422C8.73698 45.2422 6.97917 44.6432 5.625 43.4453C4.27083 42.2474 3.59375 40.7109 3.59375 38.8359ZM41.0547 39.2266V49.7344H48.0078V58.875H41.0547V78.2109C41.0547 79.7995 41.3411 80.9062 41.9141 81.5312C42.487 82.1562 43.6198 82.4688 45.3125 82.4688C46.6146 82.4688 47.7083 82.3906 48.5938 82.2344V91.6484C46.224 92.4036 43.75 92.7812 41.1719 92.7812C36.6406 92.7812 33.2943 91.7135 31.1328 89.5781C28.9714 87.4427 27.8906 84.2005 27.8906 79.8516V58.875H22.5V49.7344H27.8906V39.2266H41.0547ZM60.5859 38.3281L59.2969 54.4609H51.2109V32H60.5859V38.3281ZM84.1016 80.125C84.1016 79.0052 83.5156 78.1068 82.3438 77.4297C81.1719 76.7526 78.9453 76.0495 75.6641 75.3203C72.3828 74.5911 69.6745 73.6406 67.5391 72.4688C65.4036 71.2708 63.776 69.8255 62.6562 68.1328C61.5365 66.4401 60.9766 64.5 60.9766 62.3125C60.9766 58.4323 62.5781 55.2422 65.7812 52.7422C68.9844 50.2161 73.1771 48.9531 78.3594 48.9531C83.9323 48.9531 88.4115 50.2161 91.7969 52.7422C95.1823 55.2682 96.875 58.5885 96.875 62.7031H83.6719C83.6719 59.3177 81.888 57.625 78.3203 57.625C76.9401 57.625 75.7812 58.0156 74.8438 58.7969C73.9062 59.5521 73.4375 60.5026 73.4375 61.6484C73.4375 62.8203 74.0104 63.7708 75.1562 64.5C76.3021 65.2292 78.125 65.8281 80.625 66.2969C83.151 66.7656 85.3646 67.3255 87.2656 67.9766C93.6198 70.1641 96.7969 74.0833 96.7969 79.7344C96.7969 83.5885 95.0781 86.7266 91.6406 89.1484C88.2292 91.5703 83.8021 92.7812 78.3594 92.7812C74.7396 92.7812 71.5104 92.1302 68.6719 90.8281C65.8333 89.526 63.6198 87.7552 62.0312 85.5156C60.4427 83.276 59.6484 80.9193 59.6484 78.4453H71.9531C72.0052 80.3984 72.6562 81.8307 73.9062 82.7422C75.1562 83.6276 76.7578 84.0703 78.7109 84.0703C80.5078 84.0703 81.849 83.7057 82.7344 82.9766C83.6458 82.2474 84.1016 81.2969 84.1016 80.125ZM135.352 49.7344L135.781 54.6953C138.776 50.8672 142.799 48.9531 147.852 48.9531C153.19 48.9531 156.797 51.0755 158.672 55.3203C161.536 51.0755 165.677 48.9531 171.094 48.9531C179.661 48.9531 184.062 54.1354 184.297 64.5V92H171.094V65.3203C171.094 63.1589 170.729 61.5833 170 60.5938C169.271 59.6042 167.943 59.1094 166.016 59.1094C163.411 59.1094 161.471 60.2682 160.195 62.5859L160.234 63.1328V92H147.031V65.3984C147.031 63.1849 146.68 61.5833 145.977 60.5938C145.273 59.6042 143.932 59.1094 141.953 59.1094C139.427 59.1094 137.5 60.2682 136.172 62.5859V92H123.008V49.7344H135.352ZM212.266 92.7812C205.781 92.7812 200.534 90.8542 196.523 87C192.513 83.1198 190.508 78.0807 190.508 71.8828V70.7891C190.508 66.4661 191.302 62.651 192.891 59.3438C194.505 56.0365 196.849 53.4844 199.922 51.6875C202.995 49.8646 206.641 48.9531 210.859 48.9531C216.797 48.9531 221.484 50.8021 224.922 54.5C228.359 58.1719 230.078 63.3021 230.078 69.8906V75.0078H203.906C204.375 77.3776 205.404 79.2396 206.992 80.5938C208.581 81.9479 210.638 82.625 213.164 82.625C217.331 82.625 220.586 81.1667 222.93 78.25L228.945 85.3594C227.305 87.625 224.974 89.4349 221.953 90.7891C218.958 92.1172 215.729 92.7812 212.266 92.7812ZM210.781 59.1094C206.927 59.1094 204.635 61.6615 203.906 66.7656H217.188V65.75C217.24 63.6406 216.706 62.013 215.586 60.8672C214.466 59.6953 212.865 59.1094 210.781 59.1094Z" fill="white"/>
<path d="M113 63C142.831 67.6289 175.287 60.1798 204.222 52.7777C213.597 50.3794 222.637 47.3861 232.389 47.0555C234.918 46.9698 237.579 46.8349 240.111 47C243.302 47.2081 234.119 49.2981 231 50C197.967 57.4325 163.506 63.7507 133.444 80C131.025 81.3078 123.645 84.0948 126.389 84.2777C129.872 84.5099 134.48 82.8599 137.778 82.2222C146.205 80.5924 154.685 79.1432 163.222 78.2222C178.903 76.5305 194.494 76.8066 210 74.2222C215.126 73.3679 219.902 72.3301 225 71.0555C229.789 69.8583 237.321 67.1646 242.333 68C243.95 68.2695 239.14 68.7442 237.556 69.1666C231.399 70.8084 225.422 72.9677 219.389 75C209.308 78.3956 199.02 81.2759 189.444 86C182.665 89.3443 174.877 91.4293 169 96" stroke="#8D3F2A" stroke-width="4" stroke-linecap="round" stroke-linejoin="round"/>
<path d="M287 66C288.322 72.0188 288.463 77.4621 287.731 83.5749C287.667 84.1097 286.965 92.7019 287.487 92.3623C291.149 89.9814 292.99 83.1059 294.308 79.3043C294.961 77.4198 296.21 70.3305 298.124 69.1208C299.508 68.2457 304.297 71.0421 305.513 71.7488C307.385 72.8366 307.365 74.3144 307.624 76.3478C308.204 80.9093 308.371 94.6814 307.624 90.1449C307.018 86.4698 310.255 74.468 314.201 72.8164C316.286 71.9436 319.562 72.44 320.453 74.6232C323.299 81.5983 320.835 88.4347 319.154 95.2367C317.886 100.367 320.5 99.4942 325 100" stroke="#8D3F2A" stroke-width="4" stroke-linecap="round" stroke-linejoin="round"/>
<path d="M333.92 71C333.768 77.9024 330.973 85.1424 333.92 91.8039C335.834 96.1327 343.321 94.3774 346.224 91.8441C350.208 88.3666 350.389 79.0104 348.498 74.3334C347.109 70.901 346.098 81.3456 345.208 84.9362C342.967 93.9805 340.636 102.962 337.534 111.764C337.084 113.041 324.386 146.588 318.001 135.902C316.571 133.508 317.017 129.845 317.271 127.227C317.699 122.805 318.573 121.611 323.037 120.881C329.412 119.838 337.506 118.983 342.934 115.178C346.321 112.804 348.096 108.474 350 104.977" stroke="#8D3F2A" stroke-width="4" stroke-linecap="round" stroke-linejoin="round"/>
<path d="M383.349 84.2295C384.74 82.4723 401.778 54 393.033 54C390.908 54 389.65 58.4755 389.087 59.8535C386.735 65.6133 384.077 71.5825 382.392 77.5742C380.284 85.0708 381.196 93.424 381.196 101.148C381.196 105.814 383.121 98.2672 384.026 96.5378C386.232 92.322 389.016 89.032 392.355 85.6729C395.813 82.1948 400.004 92.7314 400.486 94.7738C401.308 98.2589 401.517 101.995 401.123 105.559C400.905 107.536 399.943 108.875 402 107.323" stroke="#8D3F2A" stroke-width="4" stroke-linecap="round" stroke-linejoin="round"/>
<path d="M446.657 83C440.498 84.8304 433.791 88.291 432.538 95.4506C431.802 99.6558 431.3 102.786 434.676 105.337C440.884 110.027 447.65 104.667 450.287 98.0565C451.311 95.4903 451.013 92.7533 451.013 90.0319C451.013 88.8986 450.838 80.0094 451.376 84.8614C452.2 92.2948 451.16 99.8147 451.901 107.239C452.584 114.089 457.379 106.341 459 103.847" stroke="#8D3F2A" stroke-width="4" stroke-linecap="round" stroke-linejoin="round"/>
<path d="M476.624 79.1027C471.649 81.506 465.646 89.0264 465.027 94.6918C464.703 97.6562 467.322 105.273 471.234 105.273C489.052 105.273 481.154 79.532 481.034 68.9254C480.991 65.1031 480.462 59.4759 481.933 55.8402C482.284 54.9719 482.504 54.4768 482.504 55.8806C482.504 60.6327 482.504 65.3848 482.504 70.1369C482.504 79.4655 479.523 106 495 106" stroke="#8D3F2A" stroke-width="4" stroke-linecap="round" stroke-linejoin="round"/>
<path d="M438.372 141.422C436.768 163.751 422.306 186.447 408.79 203.587C405.697 207.509 401.776 213.184 396.75 214.854C393.575 215.909 396.726 206.724 397.059 205.231C400.803 188.457 392.925 216.308 392.038 220.989C390.067 231.388 404.245 220.305 407.228 218.446C416.794 212.485 426.307 207.054 437.517 205.905" stroke="#8D3F2A" stroke-width="4" stroke-linecap="round" stroke-linejoin="round"/>
<path d="M413.721 98.2739C417.239 98.2049 425.944 95.0733 424.437 89.9323C422.947 84.8478 416.613 85.9213 412.93 87.9535C405.83 91.8707 407.541 98.8369 411.012 104.332C414.916 110.515 420.358 108.533 426.325 107.042" stroke="#8D3F2A" stroke-width="4" stroke-linecap="round" stroke-linejoin="round"/>
</svg>
