<svg width="28" height="28" viewBox="0 0 28 28" fill="none" xmlns="http://www.w3.org/2000/svg">
<path d="M6.99998 4.66683C6.38114 4.66683 5.78765 4.91266 5.35006 5.35025C4.91248 5.78783 4.66665 6.38132 4.66665 7.00016V21.0002C4.66665 21.619 4.91248 22.2125 5.35006 22.6501C5.78765 23.0877 6.38114 23.3335 6.99998 23.3335H21C21.6188 23.3335 22.2123 23.0877 22.6499 22.6501C23.0875 22.2125 23.3333 21.619 23.3333 21.0002V7.00016C23.3333 6.38132 23.0875 5.78783 22.6499 5.35025C22.2123 4.91266 21.6188 4.66683 21 4.66683H6.99998ZM6.99998 2.3335H21C22.2377 2.3335 23.4246 2.82516 24.2998 3.70033C25.175 4.5755 25.6666 5.76249 25.6666 7.00016V21.0002C25.6666 22.2378 25.175 23.4248 24.2998 24.3C23.4246 25.1752 22.2377 25.6668 21 25.6668H6.99998C5.7623 25.6668 4.57532 25.1752 3.70015 24.3C2.82498 23.4248 2.33331 22.2378 2.33331 21.0002V7.00016C2.33331 5.76249 2.82498 4.5755 3.70015 3.70033C4.57532 2.82516 5.7623 2.3335 6.99998 2.3335Z" fill="#F47C54"/>
<path d="M19.6643 7.24793C19.4838 7.26106 19.3065 7.30343 19.1395 7.37336H19.1373C18.977 7.43693 18.2148 7.75755 17.056 8.24355L12.9037 9.99236C9.9241 11.2467 6.99516 12.482 6.99516 12.482L7.03004 12.4685C7.03004 12.4685 6.8281 12.5349 6.61716 12.6794C6.48685 12.7624 6.37471 12.8709 6.28754 12.9984C6.18404 13.1502 6.10079 13.3826 6.13173 13.6227C6.18235 14.0289 6.4456 14.2724 6.6346 14.4069C6.82585 14.543 7.0081 14.6066 7.0081 14.6066H7.0126L9.75929 15.5319C9.88248 15.9273 10.5963 18.2741 10.7678 18.8146C10.8691 19.1375 10.9675 19.3394 11.0907 19.4936C11.1504 19.5723 11.2201 19.6381 11.3039 19.691C11.3475 19.7163 11.3939 19.7364 11.4423 19.7506L11.4142 19.7439C11.4226 19.7461 11.4293 19.7529 11.4355 19.7551C11.458 19.7613 11.4732 19.7636 11.5019 19.7681C11.9367 19.8997 12.286 19.6297 12.286 19.6297L12.3057 19.6139L13.9274 18.1374L16.6454 20.2226L16.7073 20.249C17.2737 20.4976 17.8475 20.3592 18.1507 20.1151C18.4561 19.8693 18.5748 19.5549 18.5748 19.5549L18.5945 19.5042L20.6948 8.74418C20.7545 8.47868 20.7697 8.23005 20.7038 7.98874C20.636 7.74452 20.4793 7.53447 20.2645 7.3998C20.0842 7.29018 19.8751 7.23727 19.6643 7.24793ZM19.6075 8.40105C19.6053 8.43649 19.612 8.43255 19.5963 8.50061V8.5068L17.5156 19.1549C17.5066 19.1701 17.4914 19.2033 17.4498 19.2365C17.4059 19.2714 17.371 19.2933 17.1882 19.2207L13.8639 16.6721L11.8557 18.5024L12.2776 15.8081L17.7091 10.7456C17.933 10.5374 17.8582 10.4936 17.8582 10.4936C17.8739 10.2382 17.5201 10.4187 17.5201 10.4187L10.6711 14.6617L10.6688 14.6504L7.3861 13.5451V13.5429L7.37766 13.5412C7.38342 13.5393 7.38905 13.537 7.39454 13.5344L7.41254 13.5254L7.42998 13.5192C7.42998 13.5192 10.3612 12.284 13.3407 11.0296C14.8325 10.4013 16.3355 9.76849 17.4914 9.28024C18.6474 8.7948 19.5018 8.43874 19.5502 8.41961C19.5963 8.40161 19.5744 8.40161 19.6075 8.40161V8.40105Z" fill="#F47C54" stroke="#F47C54" stroke-width="0.5"/>
</svg>
