<svg width="28" height="28" viewBox="0 0 28 28" fill="none" xmlns="http://www.w3.org/2000/svg">
<path d="M6.99998 4.66683C6.38114 4.66683 5.78765 4.91266 5.35006 5.35025C4.91248 5.78783 4.66665 6.38132 4.66665 7.00016V21.0002C4.66665 21.619 4.91248 22.2125 5.35006 22.6501C5.78765 23.0877 6.38114 23.3335 6.99998 23.3335H21C21.6188 23.3335 22.2123 23.0877 22.6499 22.6501C23.0875 22.2125 23.3333 21.619 23.3333 21.0002V7.00016C23.3333 6.38132 23.0875 5.78783 22.6499 5.35025C22.2123 4.91266 21.6188 4.66683 21 4.66683H6.99998ZM6.99998 2.3335H21C22.2377 2.3335 23.4246 2.82516 24.2998 3.70033C25.175 4.5755 25.6666 5.76249 25.6666 7.00016V21.0002C25.6666 22.2378 25.175 23.4248 24.2998 24.3C23.4246 25.1752 22.2377 25.6668 21 25.6668H6.99998C5.7623 25.6668 4.57532 25.1752 3.70015 24.3C2.82498 23.4248 2.33331 22.2378 2.33331 21.0002V7.00016C2.33331 5.76249 2.82498 4.5755 3.70015 3.70033C4.57532 2.82516 5.7623 2.3335 6.99998 2.3335Z" fill="#F47C54"/>
<path d="M13.6491 7.00212C12.5256 7.01569 10.1102 7.20031 8.75917 8.43975C7.75423 9.4355 7.40335 10.9077 7.36223 12.7281C7.3281 14.542 7.28698 17.9484 10.5704 18.8759V20.2886C10.5704 20.2886 10.5499 20.8538 10.9235 20.9697C11.3837 21.1154 11.6458 20.6806 12.0833 20.2133L12.8992 19.2906C15.1458 19.4774 16.8665 19.0469 17.0647 18.9831C17.5205 18.8374 20.0882 18.5092 20.5078 15.1024C20.9383 11.5841 20.2982 9.36725 19.1428 8.3645H19.1358C18.7871 8.04337 17.3858 7.02225 14.255 7.01087C14.255 7.01087 14.0227 6.99556 13.6491 7.00212ZM13.6876 7.99131C14.0065 7.98912 14.2004 8.00269 14.2004 8.00269C16.8503 8.00969 18.1151 8.80725 18.4135 9.07587C19.3865 9.90975 19.8879 11.9082 19.5208 14.8456C19.1721 17.6937 17.0896 17.874 16.7042 17.9969C16.5401 18.0494 15.0246 18.4231 13.1154 18.3001C13.1154 18.3001 11.6935 20.016 11.249 20.4579C11.1785 20.5353 11.0963 20.5581 11.0438 20.5467C10.9685 20.5283 10.9458 20.4351 10.9502 20.3074L10.9637 17.9628C8.17904 17.1928 8.3431 14.2874 8.37285 12.7697C8.40698 11.252 8.69179 10.0104 9.53967 9.1695C10.6811 8.13744 12.733 7.99831 13.6876 7.99131ZM13.8976 9.50856C13.8747 9.50833 13.8519 9.51264 13.8307 9.52123C13.8095 9.52983 13.7901 9.54255 13.7738 9.55866C13.7575 9.57476 13.7445 9.59393 13.7357 9.61507C13.7268 9.63621 13.7222 9.65889 13.7222 9.68181C13.7222 9.77981 13.8018 9.85725 13.8976 9.85725C14.3314 9.849 14.7625 9.92671 15.1661 10.0859C15.5697 10.2451 15.9378 10.4826 16.2492 10.7847C16.8849 11.4021 17.1946 12.2316 17.2064 13.3161C17.2064 13.4119 17.2839 13.4916 17.3819 13.4916V13.4846C17.428 13.4847 17.4724 13.4665 17.5053 13.4341C17.5381 13.4016 17.5568 13.3575 17.5573 13.3113C17.5785 12.8008 17.4957 12.2913 17.314 11.8138C17.1322 11.3363 16.8552 10.9008 16.4999 10.5336C15.8073 9.85681 14.9297 9.50856 13.8976 9.50856ZM14.2004 10.4295C13.968 10.4295 13.968 10.7804 14.2025 10.7804C14.4914 10.7851 14.7765 10.8466 15.0416 10.9616C15.3067 11.0765 15.5465 11.2425 15.7474 11.4502C15.9306 11.6523 16.0714 11.8892 16.1614 12.1467C16.2515 12.4042 16.2889 12.6772 16.2715 12.9495C16.2723 12.9956 16.2911 13.0395 16.3239 13.0719C16.3567 13.1043 16.4008 13.1225 16.4469 13.1227L16.4539 13.1319C16.5003 13.1316 16.5448 13.113 16.5776 13.0802C16.6104 13.0473 16.629 13.0029 16.6294 12.9565C16.6451 12.2613 16.429 11.6781 16.005 11.2109C15.5789 10.7436 14.9844 10.4816 14.2253 10.4295H14.2004ZM14.4878 11.3727C14.2485 11.3657 14.2393 11.7236 14.4764 11.7306C15.053 11.7604 15.333 12.0517 15.3698 12.6511C15.3706 12.6966 15.3892 12.74 15.4215 12.772C15.4539 12.8039 15.4975 12.822 15.543 12.8222H15.55C15.5734 12.8212 15.5964 12.8155 15.6176 12.8056C15.6388 12.7956 15.6578 12.7815 15.6734 12.7641C15.6891 12.7467 15.7012 12.7264 15.7089 12.7043C15.7166 12.6822 15.7199 12.6587 15.7185 12.6354C15.6774 11.854 15.2512 11.4139 14.4948 11.3732L14.4878 11.3727Z" fill="#F47C54" stroke="#F47C54" stroke-width="0.3"/>
<path d="M11.2337 9.98C11.3414 9.91633 11.4677 9.89147 11.5916 9.90956C11.5916 9.90956 11.7934 9.98 11.8847 10.0841C12.2242 10.4716 12.5249 10.8914 12.7824 11.3376C12.9509 11.6364 12.8415 11.9391 12.6844 12.0669L12.3563 12.3311C12.1879 12.4589 12.2106 12.7096 12.2106 12.7096C12.2106 12.7096 12.6962 14.5528 14.5167 15.0178L14.5237 15.0134C14.5237 15.0134 14.7678 15.0362 14.9021 14.8721L15.1642 14.5418C15.2871 14.3778 15.5903 14.2798 15.8887 14.4416C16.3342 14.7009 16.754 15.0023 17.1421 15.3416C17.3359 15.5034 17.3814 15.7428 17.2471 15.9956V16C17.104 16.2514 16.9208 16.4776 16.7046 16.6698C16.5272 16.8309 16.3009 16.9279 16.0619 16.9454C15.9867 16.9454 15.9119 16.9341 15.8296 16.9091V16.9048C15.5492 16.8225 15.0819 16.6243 14.3119 16.2052C13.6382 15.8326 13.0148 15.3755 12.4569 14.845L12.4386 14.8293L12.4228 14.8109L12.3979 14.7925L12.3821 14.7698C11.8532 14.2139 11.3982 13.592 11.0285 12.9196C10.7415 12.4409 10.5066 11.9326 10.3267 11.4041L10.3154 11.3971C10.2834 11.2947 10.2742 11.1875 10.2878 11.0803C10.3106 10.9005 10.3972 10.7137 10.5569 10.5291C10.5569 10.5291 11.0397 10.0946 11.2337 9.98Z" stroke="#F47C54" stroke-width="0.7"/>
</svg>
